{"title":"The Following S02E04 HDTV x264 AAC E-Subs [GWC].mp4","uid":9600709,"size":129968935,"categoryP":"video","categoryS":"tv_shows","magnet":"?xt=urn:btih:c8b6a273709ae717d4650cafd7295df3d231e70c&amp;dn=The+Following+S02E04+HDTV+x264+AAC+E-Subs+%5BGWC%5D.mp4&amp;tr=udp%3A%2F%2Ftracker.openbittorrent.com%3A80&amp;tr=udp%3A%2F%2Fopen.demonii.com%3A1337&amp;tr=udp%3A%2F%2Ftracker.coppersurfer.tk%3A6969&amp;tr=udp%3A%2F%2Fexodus.desync.com%3A6969","seeders":2,"leechers":0,"uploader":"canc232","files":1,"time":1392107240,"description":"The Following S02E04 HDTV x264 AAC E-Subs [GWC] \n\n\nSCREENS : &lt;a href=&quot;\nhttp://i.imgur.com/mTZy06d.jpg&quot; rel=&quot;nofollow&quot; target=&quot;_NEW&quot;&gt;\nhttp://i.imgur.com/mTZy06d.jpg&lt;/a&gt; &lt;a href=&quot;\nhttp://i.imgur.com/Wdkl7Nc.jpg&quot; rel=&quot;nofollow&quot; target=&quot;_NEW&quot;&gt;\nhttp://i.imgur.com/Wdkl7Nc.jpg&lt;/a&gt; &lt;a href=&quot;\nhttp://i.imgur.com/ej2zGBW.jpg&quot; rel=&quot;nofollow&quot; target=&quot;_NEW&quot;&gt;\nhttp://i.imgur.com/ej2zGBW.jpg&lt;/a&gt;\n\n\nMEDIA INFO :\nGeneral \nFormat : MPEG-4 \nFormat profile : Base Media \nFile size : 124 MiB \nDuration : 41mn 31s \nOverall bit rate : 417 Kbps \n\nVideo \nFormat : AVC \nFormat profile : &lt;a class=&quot;__cf_email__&quot; href=&quot;/cdn-cgi/l/email-protection&quot; data-cfemail=&quot;d991b0beb19995eaf7e9&quot;&gt;[email&amp;#160;protected]&lt;/a&gt;&lt;script cf-hash='f9e31' type=&quot;text/javascript&quot;&gt;\n/* &lt;![CDATA[ */!function(){try{var t=&quot;currentScript&quot;in document?document.currentScript:function(){for(var t=document.getElementsByTagName(&quot;script&quot;),e=t.length;e--;)if(t[e].getAttribute(&quot;cf-hash&quot;))return t[e]}();if(t&amp;&amp;t.previousSibling){var e,r,n,i,c=t.previousSibling,a=c.getAttribute(&quot;data-cfemail&quot;);if(a){for(e=&quot;&quot;,r=parseInt(a.substr(0,2),16),n=2;a.length-n;n+=2)i=parseInt(a.substr(n,2),16)^r,e+=String.fromCharCode(i);e=document.createTextNode(e),c.parentNode.replaceChild(e,c)}}}catch(u){}}();/* ]]&gt; */&lt;/script&gt; \nFormat settings, CABAC : Yes \nFormat settings, ReFrames : 4 frames \nDuration : 41mn 28s \nSource duration : 5mn 41s \nBit rate : 355 Kbps \nMaximum bit rate : 1 203 Kbps \nWidth : 720 pixels \nHeight : 404 pixels \nDisplay aspect ratio : 16:9 \nFrame rate : 23.976 fps \nBits/(Pixel*Frame) : 0.051 \nStream size : 105 MiB (85%) \nTitle : The Following S02E04 HDTV x264 AAC E-Subs [GWC] \nWriting library : x264 core\n\nAudio \nFormat : AAC \nFormat profile : HE-AAC / LC \nDuration : 41mn 28s \nBit rate mode : Variable \nChannel(s) : 2 channels \nSampling rate : 48.0 KHz / 24.0 KHz \nStream size : 17.8 MiB (14%) \nLanguage : English \n\nText \nFormat : Timed Text \nDuration : 41mn 31s \nTitle : English Subtitle by n17t01 \nLanguage : English ","torrent":{"xt":"urn:btih:c8b6a273709ae717d4650cafd7295df3d231e70c","amp;dn":"The+Following+S02E04+HDTV+x264+AAC+E-Subs+%5BGWC%5D.mp4","amp;tr":["udp%3A%2F%2Ftracker.openbittorrent.com%3A80","udp%3A%2F%2Fopen.demonii.com%3A1337","udp%3A%2F%2Ftracker.coppersurfer.tk%3A6969","udp%3A%2F%2Fexodus.desync.com%3A6969"],"infoHash":"c8b6a273709ae717d4650cafd7295df3d231e70c","infoHashBuffer":{"type":"Buffer","data":[200,182,162,115,112,154,231,23,212,101,12,175,215,41,93,243,210,49,231,12]},"announce":[],"urlList":[]}}